<?xml version="1.0" encoding="UTF-8"?>
<svg width="752pt" height="752pt" version="1.1" viewBox="0 0 752 752" xmlns="http://www.w3.org/2000/svg">
 <defs>
  <clipPath id="a">
   <path d="m139.21 202h473.58v348h-473.58z"/>
  </clipPath>
 </defs>
 <g clip-path="url(#a)">
  <path d="m226.04 265.5h110.5c4.3672 0 7.8945-3.5352 7.8945-7.8945 0-4.3555-3.5273-7.8906-7.8945-7.8906h-110.5c-4.3672 0-7.8945 3.5352-7.8945 7.8906 0 4.3594 3.5273 7.8945 7.8945 7.8945zm134.18-7.8945c0 4.3594 3.5273 7.8945 7.8945 7.8945h173.64c4.3672 0 7.8945-3.5352 7.8945-7.8945 0-4.3555-3.5273-7.8906-7.8945-7.8906h-173.64c-4.3672 0-7.8945 3.5352-7.8945 7.8906zm-181.54 55.25h252.58c4.3633 0 7.8906-3.5352 7.8906-7.8906 0-4.3594-3.5273-7.8945-7.8906-7.8945h-252.58c-4.3633 0-7.8945 3.5352-7.8945 7.8945 0 4.3555 3.5312 7.8906 7.8945 7.8906zm426.22 31.574h-331.51c-4.3633 0-7.8906 3.5352-7.8906 7.8945 0 4.3555 3.5273 7.8906 7.8906 7.8906h331.51c4.3672 0 7.8945-3.5352 7.8945-7.8906 0-4.3594-3.5273-7.8945-7.8945-7.8945zm-260.47 149.97c0-4.3594-3.5273-7.8945-7.8945-7.8945h-142.07c-4.3633 0-7.8906 3.5352-7.8906 7.8945 0 4.3555 3.5273 7.8906 7.8906 7.8906h142.07c4.3672 0 7.8945-3.5352 7.8945-7.8906zm181.54-7.8945h-157.86c-4.3672 0-7.8945 3.5352-7.8945 7.8945 0 4.3555 3.5273 7.8906 7.8945 7.8906h157.86c4.3633 0 7.8945-3.5352 7.8945-7.8906 0-4.3594-3.5312-7.8945-7.8945-7.8945zm-157.86-94.715h-173.65c-4.3633 0-7.8906 3.5352-7.8906 7.8906 0 4.3594 3.5273 7.8945 7.8906 7.8945h173.65c4.3633 0 7.8906-3.5352 7.8906-7.8945 0-4.3555-3.5273-7.8906-7.8906-7.8906zm205.22 0h-173.65c-4.3633 0-7.8906 3.5352-7.8906 7.8906 0 4.3594 3.5273 7.8945 7.8906 7.8945h173.65c4.3633 0 7.8906-3.5352 7.8906-7.8945 0-4.3555-3.5273-7.8906-7.8906-7.8906zm-268.36-173.65h205.22c4.3633 0 7.8906-3.5352 7.8906-7.8906 0-4.3594-3.5273-7.8945-7.8906-7.8945h-205.22c-4.3672 0-7.8945 3.5352-7.8945 7.8945 0 4.3555 3.5273 7.8906 7.8945 7.8906zm173.64 315.72h-205.22c-4.3633 0-7.8906 3.5352-7.8906 7.8906 0 4.3594 3.5273 7.8945 7.8906 7.8945h205.22c4.3672 0 7.8945-3.5352 7.8945-7.8945 0-4.3555-3.5273-7.8906-7.8945-7.8906zm-165.75-86.824c0 4.3555 3.5312 7.8906 7.8945 7.8906h173.65c4.3633 0 7.8906-3.5352 7.8906-7.8906 0-4.3594-3.5273-7.8945-7.8906-7.8945h-173.65c-4.3633 0-7.8945 3.5352-7.8945 7.8945zm-63.141-94.715c0-4.3594-3.5312-7.8945-7.8945-7.8945h-94.715c-4.3672 0-7.8945 3.5352-7.8945 7.8945 0 4.3555 3.5273 7.8906 7.8945 7.8906h94.715c4.3633 0 7.8945-3.5352 7.8945-7.8906zm213.11-55.254c-4.3633 0-7.8945 3.5352-7.8945 7.8945 0 4.3555 3.5312 7.8906 7.8945 7.8906h63.145c4.3633 0 7.8945-3.5352 7.8945-7.8906 0-4.3594-3.5312-7.8945-7.8945-7.8945zm-173.64 142.07c4.3633 0 7.8906 3.5352 7.8906 7.8945 0 4.3555-3.5273 7.8906-7.8906 7.8906h-63.145c-4.3672 0-7.8945-3.5352-7.8945-7.8906 0-4.3594 3.5273-7.8945 7.8945-7.8945z" fill-rule="evenodd"/>
 </g>
</svg>
